<?xml version="1.0" encoding="UTF-8" standalone="no"?>
<svg
   xmlns:dc="http://purl.org/dc/elements/1.1/"
   xmlns:cc="http://creativecommons.org/ns#"
   xmlns:rdf="http://www.w3.org/1999/02/22-rdf-syntax-ns#"
   xmlns:svg="http://www.w3.org/2000/svg"
   xmlns="http://www.w3.org/2000/svg"
   xmlns:sodipodi="http://sodipodi.sourceforge.net/DTD/sodipodi-0.dtd"
   xmlns:inkscape="http://www.inkscape.org/namespaces/inkscape"
   height="16"
   width="16"
   version="1.1"
   id="svg52"
   sodipodi:docname="muted.svg"
   inkscape:version="1.0.1 (0767f8302a, 2020-10-17)">
  <metadata
     id="metadata58">
    <rdf:RDF>
      <cc:Work
         rdf:about="">
        <dc:format>image/svg+xml</dc:format>
        <dc:type
           rdf:resource="http://purl.org/dc/dcmitype/StillImage" />
        <dc:title />
      </cc:Work>
    </rdf:RDF>
  </metadata>
  <defs
     id="defs56" />
  <sodipodi:namedview
     pagecolor="#ffffff"
     bordercolor="#666666"
     borderopacity="1"
     objecttolerance="10"
     gridtolerance="10"
     guidetolerance="10"
     inkscape:pageopacity="0"
     inkscape:pageshadow="2"
     inkscape:window-width="1586"
     inkscape:window-height="1168"
     id="namedview54"
     showgrid="false"
     inkscape:zoom="11.313709"
     inkscape:cx="-35.278476"
     inkscape:cy="4.0001862"
     inkscape:window-x="458"
     inkscape:window-y="125"
     inkscape:window-maximized="0"
     inkscape:current-layer="svg52"
     inkscape:document-rotation="0"
     inkscape:pagecheckerboard="true" />
  <path
     d="M 4.496,0 C 3.087,0 2,0.842 2,2.537 V 8.461 C 2,10.156 3.087,11 4.496,11 5.906,11 6.99,10.154 6.99,8.46 V 2.538 C 6.99,0.845 5.905,0 4.496,0 Z m 0,0.998 c 0.505,0 0.856,0.142 1.088,0.361 0.232,0.22 0.408,0.545 0.408,1.178 V 8.461 C 5.992,9.094 5.816,9.419 5.584,9.639 5.352,9.858 5.001,10.002 4.496,10.002 3.991,10.002 3.638,9.859 3.406,9.641 3.175,9.421 2.998,9.095 2.998,8.461 V 2.537 c 0,-0.634 0.177,-0.959 0.408,-1.178 0.232,-0.218 0.585,-0.36 1.09,-0.36 z M 0,7 v 1.5 c 0,2.321 1.748,4.199 4,4.45 v 2.073 A 7.576,7.576 0 0 0 2,15.459 V 16 H 7 V 15.459 A 7.856,7.856 0 0 0 5,15.025 V 12.95 C 7.252,12.7 9,10.822 9,8.501 V 7 H 8 V 8.5 A 3.482,3.482 0 0 1 5,11.951 V 11.5 H 4 v 0.451 A 3.482,3.482 0 0 1 1,8.5 V 7 Z"
     style="fill:#bebebe;fill-opacity:1;marker:none"
     overflow="visible"
     id="path12" />
  <rect
     style="fill:#6abebe;fill-opacity:1;stroke:none;stroke-width:0.755906;stroke-linejoin:round;stroke-dashoffset:14.2848"
     id="rect1985"
     x="-0.46560115"
     y="-1.3034353" />
  <path
     style="fill:#bebebe;stroke:none;stroke-width:1px;stroke-linecap:butt;stroke-linejoin:miter;stroke-opacity:1;fill-opacity:1"
     d="M 0,11.73339 V 10.741203 L 8.5078123,2.2392497 9,2.7314375 0,11.73339"
     id="path2044" />
  <path
     id="path992"
     style="fill:#bebebe;fill-opacity:1;stroke:none;stroke-width:0.755906;stroke-linejoin:round;stroke-dashoffset:14.2848"
     d="M 15.269531 10.90625 C 14.973007 10.90625 14.726563 11.152694 14.726562 11.449219 L 14.726562 12.705078 C 14.726562 13.001603 14.973007 13.25 15.269531 13.25 L 16 13.25 L 16 12.648438 L 15.326172 12.648438 L 15.326172 11.505859 L 16 11.505859 L 16 10.90625 L 15.269531 10.90625 z " />
  <path
     id="path994"
     style="fill:#bebebe;fill-opacity:1;stroke:none;stroke-width:0.755906;stroke-linejoin:round;stroke-dashoffset:14.2848"
     d="m 15.925129,5.46875 c -0.296524,0 -0.542968,0.2483972 -0.542969,0.5449219 v 1.2539062 c 0,0.2965247 0.246445,0.5449219 0.542969,0.5449219 h 0.121145 V 7.2128906 h -0.0645 V 6.0683594 h 0.0645 V 5.46875 Z"
     sodipodi:nodetypes="scssccccccs" />
  <path
     id="path998"
     style="fill:#bebebe;fill-opacity:1;stroke:none;stroke-width:0.755906;stroke-linejoin:round;stroke-dashoffset:14.2848"
     d="M 12.076172 1.4746094 C 11.646182 1.4746094 11.292183 1.7608331 11.064453 2.140625 C 10.836723 2.5204169 10.708984 3.0151715 10.708984 3.5566406 L 10.708984 12.685547 C 10.708984 13.227016 10.836723 13.719817 11.064453 14.099609 C 11.292183 14.479401 11.646182 14.765625 12.076172 14.765625 L 16 14.765625 L 16 14.166016 L 12.076172 14.166016 C 11.914703 14.166016 11.736338 14.054872 11.578125 13.791016 C 11.419912 13.527159 11.308594 13.130472 11.308594 12.685547 L 11.308594 3.5566406 C 11.308594 3.111716 11.419912 2.7130752 11.578125 2.4492188 C 11.736338 2.1853622 11.914703 2.0742186 12.076172 2.0742188 L 16 2.0742188 L 16 1.4746094 L 12.076172 1.4746094 z " />
  <path
     id="path996"
     style="fill:#bebebe;fill-opacity:1;stroke:none;stroke-width:0.755906;stroke-linejoin:round;stroke-dashoffset:14.2848"
     d="M 15.269531 2.75 C 14.973007 2.75 14.726563 2.9983972 14.726562 3.2949219 L 14.726562 4.5507812 C 14.726562 4.8473059 14.973007 5.09375 15.269531 5.09375 L 16 5.09375 L 16 4.4941406 L 15.326172 4.4941406 L 15.326172 3.3515625 L 16 3.3515625 L 16 2.75 L 15.269531 2.75 z " />
  <path
     style="color:#000000;font-style:normal;font-variant:normal;font-weight:normal;font-stretch:normal;font-size:medium;line-height:normal;font-family:sans-serif;font-variant-ligatures:normal;font-variant-position:normal;font-variant-caps:normal;font-variant-numeric:normal;font-variant-alternates:normal;font-variant-east-asian:normal;font-feature-settings:normal;font-variation-settings:normal;text-indent:0;text-align:start;text-decoration:none;text-decoration-line:none;text-decoration-style:solid;text-decoration-color:#000000;letter-spacing:normal;word-spacing:normal;text-transform:none;writing-mode:lr-tb;direction:ltr;text-orientation:mixed;dominant-baseline:auto;baseline-shift:baseline;text-anchor:start;white-space:normal;shape-padding:0;shape-margin:0;inline-size:0;clip-rule:nonzero;display:inline;overflow:visible;visibility:visible;opacity:1;isolation:auto;mix-blend-mode:normal;color-interpolation:sRGB;color-interpolation-filters:linearRGB;solid-color:#000000;solid-opacity:1;vector-effect:none;fill:#bebebe;fill-opacity:1;fill-rule:nonzero;stroke:none;stroke-width:0.6;stroke-linecap:butt;stroke-linejoin:round;stroke-miterlimit:4;stroke-dasharray:none;stroke-dashoffset:14.2848;stroke-opacity:1;color-rendering:auto;image-rendering:auto;shape-rendering:auto;text-rendering:auto;enable-background:accumulate;stop-color:#000000;stop-opacity:1"
     d="m 12.564453,5.46875 c -0.296525,0 -0.542969,0.2483972 -0.542969,0.5449219 v 1.2539062 c 0,0.2965247 0.246444,0.5449219 0.542969,0.5449219 h 1.917317 c 0.296525,0 0.544922,-0.2483972 0.544922,-0.5449219 V 6.0136719 c 0,-0.2965247 -0.248397,-0.5449219 -0.544922,-0.5449219 z m 0.05664,0.5996094 h 1.805988 v 1.1445312 h -1.805988 z"
     id="path1029"
     sodipodi:nodetypes="sssssssssccccc" />
  <path
     style="color:#000000;font-style:normal;font-variant:normal;font-weight:normal;font-stretch:normal;font-size:medium;line-height:normal;font-family:sans-serif;font-variant-ligatures:normal;font-variant-position:normal;font-variant-caps:normal;font-variant-numeric:normal;font-variant-alternates:normal;font-variant-east-asian:normal;font-feature-settings:normal;font-variation-settings:normal;text-indent:0;text-align:start;text-decoration:none;text-decoration-line:none;text-decoration-style:solid;text-decoration-color:#000000;letter-spacing:normal;word-spacing:normal;text-transform:none;writing-mode:lr-tb;direction:ltr;text-orientation:mixed;dominant-baseline:auto;baseline-shift:baseline;text-anchor:start;white-space:normal;shape-padding:0;shape-margin:0;inline-size:0;clip-rule:nonzero;display:inline;overflow:visible;visibility:visible;opacity:1;isolation:auto;mix-blend-mode:normal;color-interpolation:sRGB;color-interpolation-filters:linearRGB;solid-color:#000000;solid-opacity:1;vector-effect:none;fill:#bebebe;fill-opacity:1;fill-rule:nonzero;stroke:none;stroke-width:0.6;stroke-linecap:butt;stroke-linejoin:round;stroke-miterlimit:4;stroke-dasharray:none;stroke-dashoffset:14.2848;stroke-opacity:1;color-rendering:auto;image-rendering:auto;shape-rendering:auto;text-rendering:auto;enable-background:accumulate;stop-color:#000000;stop-opacity:1"
     d="m 12.564453,8.1875 c -0.296525,0 -0.542969,0.2483972 -0.542969,0.5449219 v 1.2539062 c 0,0.2965249 0.246444,0.5449219 0.542969,0.5449219 h 2.802218 c 0.296525,0 0.544922,-0.248397 0.544922,-0.5449219 V 8.7324219 C 15.911593,8.4358972 15.663196,8.1875 15.366671,8.1875 Z m 0.05664,0.5996094 h 2.690889 v 1.1445312 h -2.690889 z"
     id="path1037"
     sodipodi:nodetypes="sssssssssccccc" />
  <path
     style="color:#000000;font-style:normal;font-variant:normal;font-weight:normal;font-stretch:normal;font-size:medium;line-height:normal;font-family:sans-serif;font-variant-ligatures:normal;font-variant-position:normal;font-variant-caps:normal;font-variant-numeric:normal;font-variant-alternates:normal;font-variant-east-asian:normal;font-feature-settings:normal;font-variation-settings:normal;text-indent:0;text-align:start;text-decoration:none;text-decoration-line:none;text-decoration-style:solid;text-decoration-color:#000000;letter-spacing:normal;word-spacing:normal;text-transform:none;writing-mode:lr-tb;direction:ltr;text-orientation:mixed;dominant-baseline:auto;baseline-shift:baseline;text-anchor:start;white-space:normal;shape-padding:0;shape-margin:0;inline-size:0;clip-rule:nonzero;display:inline;overflow:visible;visibility:visible;isolation:auto;mix-blend-mode:normal;color-interpolation:sRGB;color-interpolation-filters:linearRGB;solid-color:#000000;solid-opacity:1;vector-effect:none;fill:#bebebe;fill-opacity:1;fill-rule:nonzero;stroke:none;stroke-width:0.6;stroke-linecap:butt;stroke-linejoin:round;stroke-miterlimit:4;stroke-dasharray:none;stroke-dashoffset:14.2848;stroke-opacity:1;color-rendering:auto;image-rendering:auto;shape-rendering:auto;text-rendering:auto;enable-background:accumulate;stop-color:#000000;stop-opacity:1;opacity:1"
     d="M 12.564453 10.90625 C 12.267928 10.90625 12.021484 11.152694 12.021484 11.449219 L 12.021484 12.705078 C 12.021484 13.001603 12.267928 13.25 12.564453 13.25 L 13.826172 13.25 C 14.122697 13.25 14.371094 13.001603 14.371094 12.705078 L 14.371094 11.449219 C 14.371094 11.152694 14.122697 10.90625 13.826172 10.90625 L 12.564453 10.90625 z M 12.621094 11.505859 L 13.771484 11.505859 L 13.771484 12.648438 L 12.621094 12.648438 L 12.621094 11.505859 z "
     id="path1041" />
  <path
     style="color:#000000;font-style:normal;font-variant:normal;font-weight:normal;font-stretch:normal;font-size:medium;line-height:normal;font-family:sans-serif;font-variant-ligatures:normal;font-variant-position:normal;font-variant-caps:normal;font-variant-numeric:normal;font-variant-alternates:normal;font-variant-east-asian:normal;font-feature-settings:normal;font-variation-settings:normal;text-indent:0;text-align:start;text-decoration:none;text-decoration-line:none;text-decoration-style:solid;text-decoration-color:#000000;letter-spacing:normal;word-spacing:normal;text-transform:none;writing-mode:lr-tb;direction:ltr;text-orientation:mixed;dominant-baseline:auto;baseline-shift:baseline;text-anchor:start;white-space:normal;shape-padding:0;shape-margin:0;inline-size:0;clip-rule:nonzero;display:inline;overflow:visible;visibility:visible;isolation:auto;mix-blend-mode:normal;color-interpolation:sRGB;color-interpolation-filters:linearRGB;solid-color:#000000;solid-opacity:1;vector-effect:none;fill:#bebebe;fill-opacity:1;fill-rule:nonzero;stroke:none;stroke-width:0.6;stroke-linecap:butt;stroke-linejoin:round;stroke-miterlimit:4;stroke-dasharray:none;stroke-dashoffset:14.2848;stroke-opacity:1;color-rendering:auto;image-rendering:auto;shape-rendering:auto;text-rendering:auto;enable-background:accumulate;stop-color:#000000;stop-opacity:1;opacity:1"
     d="M 12.564453 2.75 C 12.267928 2.75 12.021484 2.9983972 12.021484 3.2949219 L 12.021484 4.5507812 C 12.021484 4.8473059 12.267928 5.09375 12.564453 5.09375 L 13.826172 5.09375 C 14.122697 5.09375 14.371094 4.8473059 14.371094 4.5507812 L 14.371094 3.2949219 C 14.371094 2.9983972 14.122697 2.75 13.826172 2.75 L 12.564453 2.75 z M 12.621094 3.3515625 L 13.771484 3.3515625 L 13.771484 4.4941406 L 12.621094 4.4941406 L 12.621094 3.3515625 z "
     id="path1033" />
</svg>
